<?xml version="1.0" encoding="UTF-8"?>
<svg id="_Слой_1" data-name="Слой 1" xmlns="http://www.w3.org/2000/svg" version="1.1" viewBox="0 0 200 88.15">
  <defs>
    <style>
      .cls-1 {
        fill: #f69f13;
        stroke-width: 0px;
      }
    </style>
  </defs>
  <path class="cls-1" d="M102.66,32.82c1.01-1.16,1.85-2.06,2.6-3.03.55-.71,1.05-.73,1.76-.07-.63,1.16-1.32,2.32-1.9,3.53-2.13,4.43-4.27,8.86-6.29,13.34-.47,1.05-.63,2.29-.72,3.46-.12,1.55.6,2.07,2.12,1.81,1.76-.31,3.25-1.21,4.3-2.55,2.45-3.14,4.86-6.32,7.06-9.63,3.19-4.81,6.18-9.75,9.26-14.63.22-.35.5-.68.81-1.09.5.42.95.78,1.4,1.15-.19.33-.31.61-.48.84-1.26,1.71-1.37,3.53-.86,5.56.78,3.12,1.54,6.27,1.98,9.45.5,3.62-.21,7.1-2.2,10.25-.09.13-.13.29-.33.77.6-.33.95-.48,1.27-.71,4.38-3.13,7.58-7.28,10.1-11.96,2.14-3.97,4.87-7.44,8.22-10.4q1.72.86.69,2.36c-2.72,3.98-5.15,8.1-6.46,12.78-.51,1.84-.94,3.71-.35,5.64.39,1.28,1.27,2,2.56,1.78,1.18-.2,2.42-.55,3.43-1.17,3.89-2.4,7.01-5.7,9.6-9.39,3.49-4.96,6.67-10.13,10.03-15.19.23-.35.84-.73,1.2-.67.88.14,1.07.66.63,1.57-4.24,8.75-8.44,17.51-12.64,26.28-.35.72-.65,1.46-.8,2.43.41-.21.84-.4,1.23-.65,6.22-3.81,11.35-8.76,15.4-14.81,3.38-5.04,7.58-9.12,13.48-10.91,2.04-.62,4.36-.61,6.53-.48,2.41.15,4.27,1.39,4.8,4.34.97-1.12,1.82-2.03,2.58-3.01.53-.68,1.03-.77,1.8-.14-.27.52-.58,1.06-.85,1.61-2.46,5.07-4.96,10.13-7.33,15.24-.5,1.08-.64,2.38-.73,3.59-.11,1.46.62,1.99,2.07,1.75,1.76-.29,3.22-1.2,4.32-2.52,2-2.41,3.85-4.95,5.75-7.44.33-.43.59-.91.94-1.46.48.39.86.7,1.34,1.09-2.72,4.44-5.3,8.92-10.07,11.44-1.02.54-2.24.8-3.4.94-2.52.3-4.14-1.02-4.55-3.55-.11-.67-.13-1.35-.23-2.34-.53.59-.92,1.03-1.31,1.46-2.28,2.51-4.74,4.76-8.14,5.67-1.92.51-3.86.72-5.76-.04-2.69-1.08-4.19-3.54-4.14-6.7,0-.57.08-1.15.13-1.83-1.68,1.54-3.15,3.14-4.86,4.43-3.15,2.37-6.46,4.54-9.65,6.86-.75.55-1.49,1.28-1.89,2.09-3.01,6.09-5.94,12.22-9.77,17.86-2.08,3.07-4.34,5.99-7.41,8.16-1.62,1.15-3.39,1.91-5.39,2.12-3.01.31-5.2-1.59-5.3-4.63-.09-2.84,1-5.31,2.49-7.62,3.27-5.06,7.78-8.85,12.71-12.15,2.43-1.63,5.03-3,7.5-4.56.61-.38,1.19-.96,1.53-1.58,1.61-3.04,3.13-6.12,4.68-9.19.19-.37.33-.76.5-1.14-.12-.11-.23-.21-.35-.32-.43.53-.82,1.1-1.3,1.57-1.83,1.8-3.81,3.38-6.2,4.38-4.82,2-8.76-1.29-9.03-5.92-.02-.41-.04-.83-.07-1.47-.97,1.15-1.77,2.16-2.65,3.11-3.63,3.94-7.71,7.13-13.34,7.37-1.48.06-3.05-.25-4.45-.77-1.88-.69-2.85-2.29-3.19-4.35.39-.1.74-.19,1.09-.28,1.66,3.85,5.94,3.49,8.18,1.03,1.42-1.56,2.21-3.39,2.78-5.37,1.45-4.99.7-9.99.23-15.39-.49.63-.78.96-1.01,1.32-2.09,3.35-4.19,6.69-6.24,10.06-2.35,3.86-4.72,7.74-8.67,10.18-1.32.82-2.96,1.29-4.51,1.52-2.41.36-4.08-1.11-4.42-3.53-.1-.69-.14-1.4-.23-2.32-1.61,1.61-3.01,3.13-4.54,4.5-1.88,1.67-4.14,2.62-6.65,2.97-5,.7-8.67-2.86-8.1-7.87.31-2.75,1.24-5.28,2.74-7.6,3.31-5.14,7.57-9.21,13.5-11.07,1.93-.6,4.11-.68,6.15-.57,2.57.13,4.68,1.26,5.27,4.4ZM170.51,53.94c1.38-.5,2.92-.74,4.09-1.54,1.83-1.26,3.5-2.8,5.07-4.39,3.48-3.55,5.64-8.04,8.28-12.18,1.42-2.24-.02-5.16-2.68-5.46-1.96-.22-3.83.16-5.57.99-6.21,2.95-10.17,7.94-12.45,14.28-.55,1.53-.64,3.34-.51,4.98.18,2.12,1.57,3.08,3.78,3.32ZM83.05,53.93c1.34-.47,2.86-.68,3.98-1.47,1.92-1.35,3.69-2.97,5.34-4.65,3.42-3.49,5.51-7.92,8.12-11.98,1.43-2.24-.02-5.16-2.69-5.45-1.96-.22-3.82.18-5.57.99-5.76,2.68-9.46,7.31-12.01,12.96-.9,1.99-1.43,4.09-1,6.31.4,2.06,1.64,3.07,3.84,3.29ZM140.06,62.97c-.09-.08-.17-.15-.26-.23-.15.05-.32.08-.45.16-5.97,3.83-11.42,8.27-15.78,13.9-1.3,1.68-2.2,3.69-3.1,5.64-.5,1.08-.28,2.32.7,3.15,1.01.86,2.3.89,3.34.19,1.63-1.1,3.48-2.17,4.59-3.71,2.62-3.63,4.98-7.47,7.23-11.34,1.44-2.47,2.5-5.16,3.73-7.75Z"/>
  <path class="cls-1" d="M36,24.87c.38.23.8.48,1.31.79-4.05,6.72-8.59,12.85-16.21,15.66-4.88,1.8-9.82,1.5-14.38-1.19C1.59,37.11-.16,32.25.01,26.59.32,16.6,5.52,9.62,13.93,4.8,19.96,1.34,26.52-.35,33.47.06c7.07.42,13.22,2.83,17.01,9.3,2.45,4.19,2.5,8.73,1.6,13.35-.82,4.22-2.63,8.05-4.79,11.73-3.22,5.5-6.47,10.97-9.65,16.49-.88,1.54-1.65,3.16-2.27,4.82-.55,1.46-.05,2.44,1.49,2.59,1.6.15,3.31,0,4.85-.43,3.81-1.08,7.1-3.26,10.2-5.65,10.43-8.04,18.58-18.11,25.64-29.12.28-.43.2-1.21.05-1.76-.98-3.61-1.45-7.27-.63-10.95.31-1.41.97-2.81,1.73-4.04.78-1.26,2.1-1.84,3.65-1.52,1.44.3,2.22,1.32,2.67,2.64.67,2,.23,3.96-.35,5.88-1.34,4.4-3.74,8.27-6.25,12.06-5.92,8.91-12.51,17.27-20.55,24.4-3.98,3.54-8.18,6.78-13.06,9.03-2.37,1.1-4.85,1.81-7.52,1.59-2.8-.23-4.71-2.06-5-4.86-.22-2.13.11-4.18,1.2-6.02,2.53-4.28,5.18-8.48,7.69-12.76,3.13-5.36,6-10.85,7.59-16.9,1.4-5.3.64-10.08-3.74-13.77-2.79-2.36-6.13-3.69-9.76-4.03-9.74-.9-18.15,2.05-24.86,9.23-4.33,4.63-6.6,10.21-6.09,16.62.81,10.16,10.41,13.22,17.67,10.13,5.29-2.26,9.04-6.21,12.23-10.82.51-.73.98-1.49,1.47-2.23.04-.06.14-.09.31-.18ZM79.21,19.95c.13.04.25.08.38.12.98-2.09,2.11-4.13,2.88-6.3.54-1.52.69-3.21.84-4.84.09-.96-.3-1.89-1.4-2.16-1.08-.26-1.61.53-2.12,1.28-.14.21-.26.44-.35.68-1.41,3.73-1.11,7.47-.22,11.22Z"/>
</svg>